<?xml version="1.0" encoding="UTF-8" standalone="no"?>
<!-- Created with Inkscape (http://www.inkscape.org/) -->

<svg
   xmlns:dc="http://purl.org/dc/elements/1.1/"
   xmlns:cc="http://creativecommons.org/ns#"
   xmlns:rdf="http://www.w3.org/1999/02/22-rdf-syntax-ns#"
   xmlns:svg="http://www.w3.org/2000/svg"
   xmlns="http://www.w3.org/2000/svg"
   xmlns:sodipodi="http://sodipodi.sourceforge.net/DTD/sodipodi-0.dtd"
   xmlns:inkscape="http://www.inkscape.org/namespaces/inkscape"
   version="1.1"
   id="svg2"
   xml:space="preserve"
   width="4266.6665"
   height="2666.6667"
   viewBox="0 0 4266.6665 2666.6667"
   sodipodi:docname="distracted.svg"
   inkscape:version="0.92.5 (2060ec1f9f, 2020-04-08)"><metadata
     id="metadata8"><rdf:RDF><cc:Work
         rdf:about=""><dc:format>image/svg+xml</dc:format><dc:type
           rdf:resource="http://purl.org/dc/dcmitype/StillImage" /><dc:title></dc:title></cc:Work></rdf:RDF></metadata><defs
     id="defs6" /><sodipodi:namedview
     pagecolor="#ffffff"
     bordercolor="#666666"
     borderopacity="1"
     objecttolerance="10"
     gridtolerance="10"
     guidetolerance="10"
     inkscape:pageopacity="0"
     inkscape:pageshadow="2"
     inkscape:window-width="956"
     inkscape:window-height="1036"
     id="namedview4"
     showgrid="false"
     inkscape:zoom="0.35399999"
     inkscape:cx="2155.9321"
     inkscape:cy="1333.3334"
     inkscape:window-x="960"
     inkscape:window-y="20"
     inkscape:window-maximized="0"
     inkscape:current-layer="g12" /><g
     id="g10"
     inkscape:groupmode="layer"
     inkscape:label="ink_ext_XXXXXX"
     transform="matrix(1.3333333,0,0,-1.3333333,0,2666.6667)"><g
       id="g12"
       transform="scale(0.1)"><g
         id="g18"
         transform="scale(1.87959)"><path
           d="m 2886.4,1327.9 c 0,0 -1384.82,1115.88 -891.19,2685.85 362.9,1154.19 1489.54,1833.82 3065.55,1566.79 1468.59,-248.83 3063.62,11.91 4436.58,1833.72 C 11099.6,9540.4 14728.2,8250.52 14266.7,5738.94 13962.9,4085.52 16300,4007.9 15036.4,1324.55 l -12150,3.35"
           style="fill:#ebf3fa;fill-opacity:1;fill-rule:nonzero;stroke:none"
           id="path20"
           inkscape:connector-curvature="0" /></g><g
         id="g22"
         transform="scale(1.15553)"><path
           d="m 15888.2,2226.07 -4.8,0.17 c -38.5,0.7 -68.2,34.1 -64.6,72.44 l 257,2717.7 224.2,-21.2 -369,-2732.33 c -2.9,-21.37 -21.3,-37.13 -42.8,-36.78"
           style="fill:#c8dbf4;fill-opacity:1;fill-rule:nonzero;stroke:none"
           id="path24"
           inkscape:connector-curvature="0" /></g><g
         id="g26"
         transform="scale(1.30692)"><path
           d="m 16235.5,1968.22 4.1,0.15 c 34.1,0.61 60.4,30.14 57.2,64.04 l -227.2,2402.9 -198.2,-18.74 326.2,-2415.84 c 2.5,-18.89 18.8,-32.82 37.9,-32.51"
           style="fill:#c8dbf4;fill-opacity:1;fill-rule:nonzero;stroke:none"
           id="path28"
           inkscape:connector-curvature="0" /></g><g
         id="g30"
         transform="scale(1.02701)"><path
           d="m 15836.6,2504.64 -5.2,0.2 c -43.4,0.78 -76.9,38.36 -72.8,81.5 l 289.1,3057.8 252.3,-23.86 -415.1,-3074.25 c -3.3,-24.05 -24,-41.78 -48.3,-41.39"
           style="fill:#bad4f4;fill-opacity:1;fill-rule:nonzero;stroke:none"
           id="path32"
           inkscape:connector-curvature="0" /></g><g
         id="g34"
         transform="scale(1.37082)"><path
           d="M 15414.3,4451.51 16300,7631.25 H 14343.4 L 13505,4561.81 15414.3,4451.51"
           style="fill:#c8dbf4;fill-opacity:1;fill-rule:nonzero;stroke:none"
           id="path36"
           inkscape:connector-curvature="0" /></g><g
         id="g38"
         transform="scale(1.29633)"><path
           d="m 16183.4,4436.15 h -3095.9 c -64.1,0 -116.6,52.46 -116.6,116.57 v 154.59 c 0,64.18 52.5,116.63 116.6,116.63 h 3095.9 c 64.1,0 116.6,-52.45 116.6,-116.63 v -154.59 c 0,-64.11 -52.5,-116.57 -116.6,-116.57"
           style="fill:#c8dbf4;fill-opacity:1;fill-rule:nonzero;stroke:none"
           id="path40"
           inkscape:connector-curvature="0" /></g><g
         id="g42"
         transform="scale(1.14357)"><path
           d="M 16188.7,5028.72 H 13736 c -61.3,0 -111.3,50.02 -111.3,111.32 v 216.95 c 0,61.22 50,111.32 111.3,111.32 h 2452.7 c 61.2,0 111.3,-50.1 111.3,-111.32 v -216.95 c 0,-61.3 -50.1,-111.32 -111.3,-111.32"
           style="fill:#bad4f4;fill-opacity:1;fill-rule:nonzero;stroke:none"
           id="path44"
           inkscape:connector-curvature="0" /></g><g
         id="g46"
         transform="scale(1.35033)"><path
           d="m 16277.5,6431.38 c -25.8,-147.74 -98.3,-277.34 -103,-289.04 -39.3,-97.6 -255.1,437.53 -255.1,437.53 l -32.2,206.09 -52.4,334.88 -14.7,93.98 -58.6,374.67 14.4,56.94 70.5,276.77 -6.4,63.12 c 0,0 217.6,-120.41 276.9,-348.86 20.9,-80.89 51.2,-252.38 79.9,-444.34 4.6,-29.99 29.9,-42.43 34.3,-73.24 37,-261.27 68.9,-559.49 46.4,-688.5"
           style="fill:#ed975d;fill-opacity:1;fill-rule:nonzero;stroke:none"
           id="path48"
           inkscape:connector-curvature="0" /></g><g
         id="g50"
         transform="scale(1.21494)"><path
           d="m 13669.2,6794.88 c 0,0 67.1,35.88 126.1,40.9 332.5,28.65 1053.4,275.33 1129.7,331.87 140.8,104.2 729.2,599.29 961.2,849.09 l 194.3,228.33 c 219.5,236.29 20.4,648.79 20.4,648.79 0,0 -377,-160.06 -513.3,-317.59 -89,-102.81 -770.4,-946.54 -855.4,-988.02 -277,-134.99 -1062.5,-596 -1144.4,-632.21 0,0 -106.4,-73.91 81.4,-161.16"
           style="fill:#ffb27d;fill-opacity:1;fill-rule:nonzero;stroke:none"
           id="path52"
           inkscape:connector-curvature="0" /></g><path
         d="m 14089.3,3298.4 c 0,0 55.4,-718.2 -67.8,-727.7 -16.4,-1.3 -625.1,-1.3 -625.1,-1.3 l -777.1,4.7 c 0,0 5.1,195.4 232.2,236.7 227.2,41.3 676.7,240.7 814.3,554 144.8,329.5 423.5,-66.4 423.5,-66.4"
         style="fill:#163560;fill-opacity:1;fill-rule:nonzero;stroke:none"
         id="path54"
         inkscape:connector-curvature="0" /><g
         id="g56"
         transform="scale(1.19616)"><path
           d="m 16300,6444.96 c 0,0 -57.2,-1088.57 -156.8,-1278.17 0,0 -44.6,15.63 -369.8,18.55 -393.4,3.52 -2272.5,11.04 -2497.9,-102.99 -70.5,-35.7 -272.6,-884.08 -1479.7,-2343.92 0,0 -120.2,-80.76 -303.7,-67.46 -175,12.78 -189.8,45.22 -189.8,45.22 0,0 1148.4,2935.15 1402.7,3177 388.4,369.35 2377.1,749.24 2668.1,757.76 290.9,8.53 926.9,-205.99 926.9,-205.99"
           style="fill:#ed7d2b;fill-opacity:1;fill-rule:nonzero;stroke:none"
           id="path58"
           inkscape:connector-curvature="0" /></g><path
         d="m 15700.3,3268.1 c 0,0 55.4,-688.4 -67.9,-697.5 -16.4,-1.2 -625.1,-1.2 -625.1,-1.2 l -777,4.5 c 0,0 5,187.2 232.2,226.8 227.1,39.6 676.7,230.7 814.3,530.9 144.7,315.9 423.5,-63.5 423.5,-63.5"
         style="fill:#163560;fill-opacity:1;fill-rule:nonzero;stroke:none"
         id="path60"
         inkscape:connector-curvature="0" /><g
         id="g62"
         transform="scale(1.25101)"><path
           d="m 16300,6162.37 c 0,0 -15.1,-287.77 -43.3,-586.96 -34.7,-368.67 -263.3,-603.04 -631.6,-641.48 -248,-25.9 -541,-12.23 -734.7,-11.12 -933.5,5.2 -1266.9,45.73 -1482.4,-63.3 -67.4,-34.14 253.2,-545.96 -839.5,-2241.15 0,0 -82.5,-65.95 -265.1,-91.85 -109,-15.5 -234.7,25.9 -234.7,25.9 0,0 339.2,2665.69 615.4,2974 197.5,220.45 1764.1,478.97 2042.3,487.12 278.2,8.07 1573.6,148.84 1573.6,148.84"
           style="fill:#f99746;fill-opacity:1;fill-rule:nonzero;stroke:none"
           id="path64"
           inkscape:connector-curvature="0" /></g><g
         id="g66"
         transform="scale(1.34847)"
         style="fill:#1d49e0;fill-opacity:1"><path
           d="m 16300,7085.98 c 0,0 -177.5,-160.78 -473.7,-133.04 -16.8,-85.88 -37.7,-181.25 -62.2,-282.25 -2,-8.38 -4,-16.91 -6.2,-25.36 -38.6,-157.14 -85.4,-326.97 -138,-494.49 -152.7,-486.55 -354,-955.16 -544.8,-1047.34 -20,-9.64 -587,-4.3 -975.2,146.69 -112.3,43.68 -220.4,110.64 -317.9,184.73 -141.5,107.38 -260.9,229.74 -339.3,317.54 -56.4,63.11 -50.6,159.96 12.6,216.32 146.1,130.22 389.3,360.34 444,495.23 46.2,113.83 114.4,353.14 168.8,555.82 -286.7,76.08 -352.3,388.07 -352.3,388.07 0,0 469.7,511.28 616.7,605.33 192.5,123.02 447.2,138.78 546.9,155.9 244.8,42.03 533.1,34.74 982.5,-171.75 0,0 254.6,-137.6 322.4,-403.06 67.8,-265.48 115.7,-508.34 115.7,-508.34"
           style="fill:#1d49e0;fill-opacity:1;fill-rule:nonzero;stroke:none"
           id="path68"
           inkscape:connector-curvature="0" /></g><g
         id="g70"
         transform="scale(1.28504)"><path
           d="m 15880.5,8185.36 c -253.2,-19.17 -275.1,185.22 -275.1,185.22 l 5.7,135.54 6.7,159.21 c 0,0 183.3,96.72 327.9,163.75 92.2,42.72 168.7,73.35 171.7,58.99 21.2,-99.05 82.1,-296.44 145.5,-385.24 37.1,-153.71 -129.1,-298.28 -382.4,-317.47"
           style="fill:#ed975d;fill-opacity:1;fill-rule:nonzero;stroke:none"
           id="path72"
           inkscape:connector-curvature="0" /></g><g
         id="g74"
         transform="scale(1.28673)"><path
           d="m 15503.7,8611 c 0,0 635,-57.4 664.6,338.55 29.7,395.97 131.7,655.23 -272.5,708.64 -404.1,53.4 -494.3,-91.79 -536.3,-221.54 -42.1,-129.77 -20.2,-800.49 144.2,-825.65"
           style="fill:#ffac73;fill-opacity:1;fill-rule:nonzero;stroke:none"
           id="path76"
           inkscape:connector-curvature="0" /></g><g
         id="g78"
         transform="scale(1.29864)"><path
           d="m 16243.6,9596.63 c 5.7,6.61 19.1,11.91 48.8,13.42 0,0 -23.7,14.91 -55.4,15.81 -6.1,41.28 -27.7,114.39 -98.6,132.4 0,0 38,-20.48 42.9,-64.37 -82,84.78 -258,146.91 -746.1,110.21 -643.3,-48.38 -432.9,-460.93 -349.9,-510.33 83.1,-49.39 293.3,84.4 448.3,71.52 155.1,-12.89 183.8,-237.15 236.3,-268.11 52.4,-30.95 32,23.51 103.3,55.43 71.4,31.92 77.7,-86.09 56.8,-162.72 -20.9,-76.64 76.6,-178.19 76.6,-178.19 0,0 0,0 99.3,106.11 99.2,106.11 194.1,556.74 149.5,653.04 -3.9,8.5 -7.8,17.12 -11.8,25.78"
           style="fill:#2c3a64;fill-opacity:1;fill-rule:nonzero;stroke:none"
           id="path80"
           inkscape:connector-curvature="0" /></g><g
         id="g82"
         transform="scale(1.2366)"><path
           d="m 16057.5,9203.21 c 0,0 22.5,-66.41 96.5,-66.41 104.8,0 146,72.16 146,72.16 0,0 -141.8,35.21 -242.5,-5.75"
           style="fill:#ffffff;fill-opacity:1;fill-rule:nonzero;stroke:none"
           id="path84"
           inkscape:connector-curvature="0" /></g><g
         id="g86"
         transform="scale(1.26955)"><path
           d="m 15961.9,8735.21 c 0,0 -50.9,84.71 0,101.81 261.7,87.74 338.1,38.2 338.1,38.2 l -338.1,-140.01"
           style="fill:#ed975d;fill-opacity:1;fill-rule:nonzero;stroke:none"
           id="path88"
           inkscape:connector-curvature="0" /></g><g
         id="g90"
         transform="scale(1.27811)"><path
           d="m 16277.1,8438.85 c 0,0 22.9,384.7 -112.2,381.8 -135.1,-2.91 -302,-45.96 -308.4,-80.46 -18,-96.7 137.7,-424.53 215,-439.11 77.3,-14.57 205.6,137.77 205.6,137.77"
           style="fill:#ffb27d;fill-opacity:1;fill-rule:nonzero;stroke:none"
           id="path92"
           inkscape:connector-curvature="0" /></g><g
         id="g94"
         transform="scale(1.30362)"><path
           d="m 16300,6873.94 c -39.9,-162.55 -88.4,-338.21 -142.8,-511.5 -157.9,-503.29 -366.2,-988.02 -563.5,-1083.37 -20.7,-9.97 -607.2,-4.45 -1008.7,151.73 -116.2,45.19 -228,114.45 -328.8,191.09 268.8,-80.93 711.6,-5.3 1126.8,136.46 444.8,151.96 466.6,701.13 466.6,701.13 128.6,303.84 -38.6,1344.48 -38.6,1344.48 l 489,-930.02"
           style="fill:#143d7a;fill-opacity:1;fill-rule:nonzero;stroke:none"
           id="path96"
           inkscape:connector-curvature="0" /></g><g
         id="g98"
         transform="scale(1.35712)"><path
           d="m 15118.1,7826.84 c 0,0 342.2,-1860.24 794.4,-1861.35 174.2,-0.37 387.5,452.28 157.4,709.88 -330.4,369.83 -740.5,1272.17 -740.5,1272.17 0,0 -57.3,36.08 -211.3,-120.7"
           style="fill:#ffb27d;fill-opacity:1;fill-rule:nonzero;stroke:none"
           id="path100"
           inkscape:connector-curvature="0" /></g><g
         id="g102"
         transform="scale(1.02394)"><path
           d="m 16122.4,8253.57 c 0,0 -189.2,-32.04 -288.1,0 -98.7,32.13 -702.9,-200.79 -630.4,-206.46 72.6,-5.56 434.5,47.96 518.9,40.83 84.4,-7.04 129.4,-11.04 96.3,-41.22 -33.1,-30.18 -267.4,-38.67 -185.5,-64.65 81.8,-26.08 282.6,-18.65 368.1,0 85.6,18.56 178.4,59.67 234.9,88.97 63.4,32.82 -114.2,182.53 -114.2,182.53"
           style="fill:#ffb27d;fill-opacity:1;fill-rule:nonzero;stroke:none"
           id="path104"
           inkscape:connector-curvature="0" /></g><g
         id="g106"
         transform="scale(1.06418)"
         style="fill:#818ee1;fill-opacity:1"><path
           d="M 14840.5,7597.13 H 16300 c 0,64.28 -52.1,116.34 -116.3,116.34 h -1343.2 v -116.34"
           style="fill:#818ee1;fill-opacity:1;fill-rule:nonzero;stroke:none"
           id="path108"
           inkscape:connector-curvature="0" /></g><g
         id="g110"
         transform="scale(1.00545)"><path
           d="m 15711.6,9723.37 h -2388.4 l 572.9,-1682.53 H 16300 l -588.4,1682.53"
           style="fill:#b24940;fill-opacity:1;fill-rule:nonzero;stroke:none"
           id="path112"
           inkscape:connector-curvature="0" /></g><g
         id="g114"
         transform="scale(1.00328)"
         style="fill:#1d49e0;fill-opacity:1"><path
           d="m 13316.8,9744.42 574.1,-1686.17 H 16300 l -589.7,1686.17 h -2393.5"
           style="fill:#1d49e0;fill-opacity:1;fill-rule:nonzero;stroke:none"
           id="path116"
           inkscape:connector-curvature="0" /></g><path
         d="m 14655.2,8946.2 c 14.9,-64.7 79.4,-117.1 144.1,-117.1 64.6,0 104.9,52.4 90,117.1 -14.9,64.6 -79.4,117 -144.1,117 -64.6,0 -104.9,-52.4 -90,-117"
         style="fill:#f9ddbf;fill-opacity:1;fill-rule:nonzero;stroke:none"
         id="path118"
         inkscape:connector-curvature="0" /><g
         id="g120"
         transform="scale(1.08733)"><path
           d="m 14931.2,13886.9 c -4.1,-271 -54.5,-520.1 -111.5,-718 -78.6,-272.7 -169.8,-447.8 -169.8,-447.8 -2.9,-1.3 -11.2,-13.6 -25,-35.2 -8.6,-13.5 -19.4,-30.7 -32.5,-51.3 -13.8,-21.8 -30.1,-47.4 -49.1,-76.2 -43.5,-66.3 -100.6,-150 -172.4,-246.2 -72,-96.4 -158.9,-205.4 -261.3,-321.8 -104.2,-118.3 -224.7,-244.3 -362.5,-372.6 -121.2,-112.8 -255.8,-227.4 -404.5,-340.1 h -0.1 c -585.5,-443.7 -1389.6,-858.1 -2455.7,-1020.3 -71.9,-11 -145,-20.9 -219.3,-29.4 -18.9,-2.2 -37.6,-4.3 -56.4,-6.4 -274.2,-30.7 -542.3,-53 -802.12,-66.5 -56.84,-3 -113.22,-5.6 -169.23,-7.6 -2341.76,-88.7 -3962.43,565.7 -3354.52,2334.4 24.93,72.7 54.36,145.7 87.83,218.9 32.19,70.6 68.34,141.4 108.07,212.2 47.82,85.2 100.98,170.7 158.92,255.9 115.33,169.4 249.88,338.2 400.98,504.4 65.21,71.8 133.54,143.1 204.72,213.6 17.84,17.8 35.87,35.4 54.08,53 517.69,501.4 1176.55,967 1891.71,1336.9 188.77,97.6 381.54,188.6 576.69,271.7 l 0.1,0.1 c 1263.57,538.8 2626.27,751.4 3663.67,338.2 453.4,-180.6 778.1,-407.7 1006.6,-656.9 135.3,-147.6 236.9,-302.8 311.6,-460.7 139.7,-295.6 185.3,-600.8 181,-882.3"
           style="fill:#ebf3fa;fill-opacity:1;fill-rule:nonzero;stroke:none"
           id="path122"
           inkscape:connector-curvature="0" /></g><g
         id="g124"
         transform="scale(1.08733)"><path
           d="m 14931.2,13886.9 c -4.1,-271 -54.5,-520.1 -111.5,-718 H 6640.05 c 115.33,169.4 249.88,338.2 400.98,504.4 65.21,71.8 133.54,143.1 204.72,213.6 17.84,17.8 35.87,35.4 54.08,53 517.69,501.4 1176.55,967 1891.71,1336.9 188.77,97.6 381.54,188.6 576.69,271.7 l 0.1,0.1 c 1263.57,538.8 2626.27,751.4 3663.67,338.2 453.4,-180.6 778.1,-407.7 1006.6,-656.9 135.3,-147.6 236.9,-302.8 311.6,-460.7 139.7,-295.6 185.3,-600.8 181,-882.3"
           style="fill:#dceaff;fill-opacity:1;fill-rule:nonzero;stroke:none"
           id="path126"
           inkscape:connector-curvature="0" /></g><path
         d="m 16235.2,15099.7 c -4.5,-294.7 -59.3,-565.6 -121.3,-780.7 -85.4,-296.6 -184.6,-487 -184.6,-487 -3.2,-1.4 -12.2,-14.7 -27.2,-38.2 -9.4,-14.7 -21.1,-33.4 -35.3,-55.8 -15,-23.7 -32.8,-51.5 -53.4,-82.9 -47.3,-72 -109.4,-163.1 -187.5,-267.7 -78.3,-104.8 -172.7,-223.3 -284.1,-349.9 -113.3,-128.6 -244.3,-265.6 -394.1,-405.1 H 6929.63 V 13810 c 35,76.7 74.3,153.7 117.5,230.7 52,92.7 109.8,185.6 172.8,278.3 125.4,184.2 271.7,367.7 436,548.4 70.9,78.1 145.2,155.6 222.6,232.3 h 8356.67"
         style="fill:#afdff9;fill-opacity:1;fill-rule:nonzero;stroke:none"
         id="path128"
         inkscape:connector-curvature="0" /><path
         d="M 11360.1,15099.7 H 7878.53 c 19.4,19.3 39,38.5 58.8,57.6 602,-29.4 2533.57,58.1 2815.87,36.4 76.8,-5.9 151.3,-14.3 220.3,-23.7 63.8,-8.7 122.9,-18.2 174.7,-27.3 128.3,-22.6 211.9,-43 211.9,-43"
         style="fill:#afcdfb;fill-opacity:1;fill-rule:nonzero;stroke:none"
         id="path130"
         inkscape:connector-curvature="0" /><g
         id="g132"
         transform="scale(1.03794)"><path
           d="m 11995.7,15988.3 -2366.79,15.4 c 197.75,102.3 399.69,197.6 604.09,284.7 l 0.1,0.1 c 89.1,5.7 214.9,11.5 359.6,11.5 267.1,0 598.6,-19.7 882.1,-96 391.6,-105.3 520.9,-215.7 520.9,-215.7"
           style="fill:#eaf3ff;fill-opacity:1;fill-rule:nonzero;stroke:none"
           id="path134"
           inkscape:connector-curvature="0" /></g><g
         id="g136"
         transform="scale(1.02059)"><path
           d="m 13081.5,16181.2 c 0,65.6 53.1,118.8 118.8,118.8 65.5,0 118.8,-53.2 118.8,-118.8 0,-65.5 -53.3,-118.7 -118.8,-118.7 -65.7,0 -118.8,53.2 -118.8,118.7"
           style="fill:#f8fbff;fill-opacity:1;fill-rule:nonzero;stroke:none"
           id="path138"
           inkscape:connector-curvature="0" /></g><path
         d="m 15341.8,13037.5 c -113.3,-128.6 -244.3,-265.6 -394.1,-405.1 -131.8,-122.6 -278.2,-247.3 -439.9,-369.8 h -0.1 c -636.6,-482.5 -1510.9,-933.1 -2670.1,-1109.4 -78.2,-12 -157.7,-22.7 -238.5,-32 -20.5,-2.4 -40.9,-4.7 -61.3,-6.9 -298.2,-33.4 -589.7,-57.7 -872.2,-72.4 -61.8,-3.2 -123.1,-6 -184,-8.2 -2546.27,-96.4 -4308.47,615.1 -3647.47,2538.3 27.1,79 59.1,158.4 95.5,238 35,76.7 74.3,153.7 117.5,230.7 52,92.7 109.8,185.6 172.8,278.3 125.4,184.2 271.7,367.7 436,548.4 l 1134.8,-55 h 0.1 l 1570.57,-76.2 c 0,0 248.7,3.7 467.2,-22.7 114,-13.8 219.8,-35.8 277.8,-70.9 23.1,-13.9 38.6,-29.9 44,-48.2 7.5,-25.4 -9.9,-48.3 -41.9,-70 -86,-58.7 -277.3,-109.6 -368.1,-181.6 -9.7,-7.7 -18.3,-15.6 -25.4,-23.8 -28.9,-33.1 -35.1,-70.6 -2.2,-114.9 8.8,-11.8 20.3,-24.2 35,-36.9 26.3,-23.2 62.7,-48 110.8,-74.7 35.7,-19.8 76.4,-37.2 121.6,-52.5 42.3,-14.4 88.6,-27 138.2,-37.9 253.6,-55.9 596,-70.3 960.1,-76.1 108.6,-1.8 219.2,-2.8 329.9,-3.9 h 0.1 c 496.8,-4.9 996.7,-12.2 1339.5,-100.8 153.5,-39.7 280.7,-76.6 385.1,-111.1 1132.2,-373.2 -405.4,-451 91.2,-541.2 229.3,-41.7 677,-89.9 1117.5,-131.5"
         style="fill:#ffe0b3;fill-opacity:1;fill-rule:nonzero;stroke:none"
         id="path140"
         inkscape:connector-curvature="0" /><path
         d="m 14507.7,12262.6 c -636.6,-482.5 -1510.9,-933.1 -2670.1,-1109.4 -78.2,-12 -157.7,-22.7 -238.5,-32 -20.5,-2.4 -40.9,-4.7 -61.3,-6.9 -298.2,-33.4 -589.7,-57.7 -872.2,-72.4 -61.8,-3.2 -123.1,-6 -184,-8.2 -2546.27,-96.4 -4308.47,615.1 -3647.47,2538.3 27.1,79 59.1,158.4 95.5,238 35,76.7 74.3,153.7 117.5,230.7 l 2134,-146.4 h 0.1 l 521.2,-35.7 c 0,0 968.87,20.2 1027.77,-261.3 15.7,-74.9 -51.9,-137.8 -146.7,-199.7 -261.5,-170.9 -730.27,-334.8 -233.4,-724.9 17.8,-14 37.5,-27.4 59,-40.3 117.8,-70.7 288.9,-125.1 498,-167.1 150.4,-30.3 320.4,-54.3 504.6,-73.6 1.2,-0.1 2.4,-0.2 3.7,-0.3 175.6,-18.3 364.1,-32.3 560.4,-43.4 824.9,-46.5 1789.1,-41.3 2531.9,-85.4"
         style="fill:#ffe6c5;fill-opacity:1;fill-rule:nonzero;stroke:none"
         id="path142"
         inkscape:connector-curvature="0" /><path
         d="m 14292.6,14074.2 c 0,0 467.5,57.9 552.1,31.3 84.6,-26.6 133.4,-71 282.8,-48.8 149.5,22.2 262.8,-66.8 337.7,-66.3 74.9,0.4 183,-7.5 253.4,-38.8 0,0 -157.1,1.6 -216,-16.6 -58.9,-18.2 -222,111.1 -258.8,110.1 -36.8,-1 -191.6,-47.3 -288.7,1 -97.2,48.3 -88.8,52.2 -122.2,47 -33.4,-5.3 -334,-43.7 -540.3,-18.9"
         style="fill:#ffffff;fill-opacity:1;fill-rule:nonzero;stroke:none"
         id="path144"
         inkscape:connector-curvature="0" /><g
         id="g146"
         transform="scale(1.01594)"><path
           d="m 15786.6,15807 -1992.5,13 c 0,0 217.8,255.6 734,255.6 28.6,0 58.1,-0.8 88.6,-2.5 0,0 348.7,196.4 836.4,226.9 144.8,-157.9 253.6,-324 333.5,-493"
           style="fill:#eaf3ff;fill-opacity:1;fill-rule:nonzero;stroke:none"
           id="path148"
           inkscape:connector-curvature="0" /></g><path
         d="m 12984.2,15718.5 -3079.5,20.1 c 0,0 138.2,162.3 465.8,162.3 18.2,0 37,-0.5 56.4,-1.6 0,0 260.2,146.6 611.1,146.6 152.1,0 321.1,-27.5 493.5,-106.4 0,0 162.2,17.3 380.9,17.3 204,0 457.2,-15.1 673.8,-73.4 299.2,-80.4 398,-164.9 398,-164.9"
         style="fill:#e4efff;fill-opacity:1;fill-rule:nonzero;stroke:none"
         id="path150"
         inkscape:connector-curvature="0" /><path
         d="m 15866.8,13738 c -15,-23.7 -32.8,-51.5 -53.4,-82.9 -47.3,-72 -109.4,-163.1 -187.5,-267.7 l -506.9,67.5 -421.3,365.3 -38.1,33 503.4,-112.2 286.1,-15.9 417.7,12.9"
         style="fill:#afdff9;fill-opacity:1;fill-rule:nonzero;stroke:none"
         id="path152"
         inkscape:connector-curvature="0" /><path
         d="m 15902.1,13793.8 c -9.4,-14.7 -21.1,-33.4 -35.3,-55.8 -15,-23.7 -32.8,-51.5 -53.4,-82.9 -235.7,0.3 -518.8,21.2 -739.4,89.6 -125.1,38.7 -257.2,61.4 -376.3,75.5 -205.5,24 -372.6,22.3 -399.2,33 0,0 301.7,59.7 548,18.7 246.2,-41 230.1,-142.9 504.4,-131.1 157.3,6.7 368.6,37.9 551.2,53"
         style="fill:#ffffff;fill-opacity:1;fill-rule:nonzero;stroke:none"
         id="path154"
         inkscape:connector-curvature="0" /><path
         d="m 12210.1,14191.2 c 0,0 584.5,57.8 690.3,31.3 105.7,-26.6 166.8,-71 353.6,-48.8 186.8,22.2 328.6,-66.8 422.2,-66.4 93.6,0.5 228.7,-7.5 316.8,-38.7 0,0 -196.4,1.6 -270,-16.6 -73.7,-18.2 -277.7,111 -323.7,110.1 -46,-1 -239.5,-47.4 -361,0.9 -121.4,48.3 -110.9,52.3 -152.7,47 -41.8,-5.2 -417.6,-43.6 -675.5,-18.8"
         style="fill:#ffffff;fill-opacity:1;fill-rule:nonzero;stroke:none"
         id="path156"
         inkscape:connector-curvature="0" /><path
         d="m 13539.3,14648 c 0,0 40.4,-30.7 351.3,35.9 61.6,13.2 100,-51.6 198.8,-16.8 98.7,34.8 185.5,-22.6 236.4,-14.9 50.9,7.7 102.2,21 179.4,-23.1 0,0 -107.1,-13.8 -144.8,-36.1 -37.7,-22.3 -207.8,76.9 -232.7,72.4 -24.9,-4.5 -81.9,-59.3 -154.3,-24.8 -72.3,34.5 -67.1,38.8 -89.2,30.8 -22,-8 -217.6,-80.7 -344.9,-23.4"
         style="fill:#ffffff;fill-opacity:1;fill-rule:nonzero;stroke:none"
         id="path158"
         inkscape:connector-curvature="0" /><path
         d="m 13171.9,14698.9 c 0,0 20.7,-15.7 179.7,18.4 31.5,6.7 41.9,-19.6 92.4,-1.8 50.5,17.8 104.2,-18.4 130.2,-14.5 26,4 52.2,10.8 91.7,-11.8 0,0 -54.7,-7 -74,-18.4 -19.3,-11.4 -106.3,39.3 -119,37 -12.8,-2.3 -41.9,-30.3 -78.9,-12.7 -37,17.6 -34.4,19.9 -45.7,15.8 -11.2,-4.1 -111.3,-41.3 -176.4,-12"
         style="fill:#ffffff;fill-opacity:1;fill-rule:nonzero;stroke:none"
         id="path160"
         inkscape:connector-curvature="0" /><path
         d="m 12081.7,13568.4 v -0.4 c -0.1,-0.9 -0.2,-2.9 -0.5,-6.2 -2.6,-31.2 -13.9,-170.1 -29.4,-364.1 -9.5,-116.9 -20.4,-253.9 -32,-399.3 -4.5,-56.3 -9.3,-111.7 -14.3,-166 -4.1,-42.9 -8.2,-85.2 -12.5,-126.6 -5.6,-54.1 -11.4,-106.8 -17.2,-157.8 -41.5,-362.4 -87.3,-640.9 -100.4,-736 -23.1,-166.8 -33.6,-325.4 -37.8,-458.8 -78.2,-12 -157.7,-22.7 -238.5,-32 -20.5,-2.4 -40.9,-4.7 -61.3,-6.9 -32.2,158.3 -70.4,373.4 -109.8,654.8 -15.9,113.4 15,293 14.3,302.2 -7.2,97 -16.5,206 -26.9,320.1 -0.3,2.1 -0.5,4.3 -0.6,6.4 v 0.1 c -1.1,11.4 -2.2,22.8 -3.2,34.2 -6.2,65.8 -12.6,133 -19.3,200.3 -22.3,225.9 -46.5,452.8 -66.1,631.7 -18.1,163.9 -32.2,287.5 -37.5,333.3 -1.4,12.7 -2.2,19.4 -2.2,19.4 l 437.9,-26.7 h 0.3 l 170.2,-10.3 65.8,-4 121,-7.4"
         style="fill:#ffb27d;fill-opacity:1;fill-rule:nonzero;stroke:none"
         id="path162"
         inkscape:connector-curvature="0" /><path
         d="m 11951.7,13526.8 c 0,0 -21.6,-48.3 -59.1,-130.3 l -0.4,-0.9 c -22.6,-49.5 -50.9,-111.1 -83.7,-181.7 -74.3,-160.1 -171.6,-366.4 -277,-581.5 -12.1,-24.8 -24.4,-49.6 -36.8,-74.6 -20.3,-41.1 -40.8,-82.3 -61.5,-123.4 -6.1,-12.2 -12.2,-24.3 -18.4,-36.5 v -0.1 c -1,-2.1 -2.1,-4 -3.1,-6.1 -120,-237.2 -243.2,-468.3 -350.2,-644.1 -248.6,-408.3 -353.9,-615 -395.9,-705.7 -61.8,-3.2 -123.1,-6 -184,-8.2 9.8,132.9 90.5,1116.5 363.3,1349.4 22.3,19 43,47.2 62.2,82.2 3.4,6.2 6.7,12.5 10,19.1 21.3,42.5 40.6,93.1 57.9,148 70.2,223 107.6,517.3 112.3,628 0.5,11.5 1.2,23.9 1.9,36.8 7,117.1 24.6,284.9 35.2,381.4 v 0.5 c 5.1,46.3 8.6,76.1 8.6,76.1 l 591.4,-165.1 h 0.3 l 70.9,-19.7 0.4,-0.1 80.6,-22.5 66.4,-18.6 8.7,-2.4"
         style="fill:#ffb27d;fill-opacity:1;fill-rule:nonzero;stroke:none"
         id="path164"
         inkscape:connector-curvature="0" /><path
         d="m 11252.2,15438.3 c 0,0 367.6,-115.9 556.7,-25.6 0,0 -57.7,54.4 -149.7,87.8 1.1,40.7 1.4,76 0.2,105.7 -1.4,68.7 -6.9,107 -6.9,107 l -147.7,84.9 -140.2,81.5 c 50.7,-279 -112.4,-441.3 -112.4,-441.3"
         style="fill:#ffb27d;fill-opacity:1;fill-rule:nonzero;stroke:none"
         id="path166"
         inkscape:connector-curvature="0" /><path
         d="m 11125.2,13616.8 c -0.8,-21.3 949.9,-60.4 956,-55 5.4,3.8 -14.5,1361.5 -48.4,1496.4 -40.7,159.2 -133.1,264.5 -217,341.1 l -69.3,60.6 c -69.2,-13.6 -142.4,-9.9 -215.5,25.7 -80,38.7 -166.2,80.4 -180.1,69.8 -104.6,-76.6 -175.4,-248.6 -213.2,-468.4 -0.2,-1.1 -0.4,-2.1 -0.5,-3.2 -21.2,-125.7 -31.8,-266.3 -31,-413.6 0,-54.6 19.8,-1029.2 19,-1053.4"
         style="fill:#ffb27d;fill-opacity:1;fill-rule:nonzero;stroke:none"
         id="path168"
         inkscape:connector-curvature="0" /><path
         d="m 11377.9,15772.1 c 0,0 109.8,-145.7 281.5,-165.9 -1.4,68.7 -6.9,107 -6.9,107 l -147.7,84.9 -126.9,-26"
         style="fill:#ed985f;fill-opacity:1;fill-rule:nonzero;stroke:none"
         id="path170"
         inkscape:connector-curvature="0" /><path
         d="m 11712.2,15726.5 c 0,0 -319.9,-101.2 -379.9,95.8 -60,197 -141.8,316.6 59.9,389.5 201.8,73 264.5,9.8 300.8,-51.1 36.3,-60.9 100.9,-402.8 19.2,-434.2"
         style="fill:#ffb27d;fill-opacity:1;fill-rule:nonzero;stroke:none"
         id="path172"
         inkscape:connector-curvature="0" /><g
         id="g174"
         transform="scale(1.0055)"><path
           d="m 11094.4,16113.3 c -3.5,3 -10.6,4.7 -25.9,3.4 0,0 11,9.3 27.1,12.1 0.1,21.6 6,60.6 41,74.9 0,0 -18,-13.2 -17.3,-36 35.8,49.3 121.4,93.9 374,110.5 333,21.8 255.1,-204.7 216.1,-236 -38.9,-31.3 -156.2,21.9 -234.7,4.1 -78.4,-17.8 -76.8,-134.7 -101.5,-154.4 -24.7,-19.7 -18.1,9.7 -57,20.9 -38.8,11.2 -33.5,-49.7 -17.3,-87.4 16.3,-37.8 -26.3,-96.9 -26.3,-96.9 0,0 0,0 -58.5,47.2 -58.5,47.1 -139.8,271 -123.9,323.6 1.4,4.6 2.7,9.3 4.2,14"
           style="fill:#2c3a64;fill-opacity:1;fill-rule:nonzero;stroke:none"
           id="path176"
           inkscape:connector-curvature="0" /></g><path
         d="m 12079.1,13887.2 51,-1347.1 c 0,0 -324.8,-110.6 -592.6,-21.4 -267.7,89.3 541.6,1368.5 541.6,1368.5"
         style="fill:#a32721;fill-opacity:1;fill-rule:nonzero;stroke:none"
         id="path178"
         inkscape:connector-curvature="0" /><path
         d="m 12079.1,13887.2 h -958.5 l -279,-1370.9 c 0,0 267.5,-147.5 691.2,-66.6 l 546.3,1437.5"
         style="fill:#c4453b;fill-opacity:1;fill-rule:nonzero;stroke:none"
         id="path180"
         inkscape:connector-curvature="0" /><path
         d="m 8129.06,14553.7 c 19.52,-124.9 1399.81,-1026.3 2995.04,-1261.7 1595.1,-235.4 2941.3,-67.2 3006.7,375.9 65.4,443.1 -1174.8,993.1 -2769.9,1228.5 -1595.22,235.5 -3257.69,-177.5 -3231.84,-342.7"
         style="fill:#f99746;fill-opacity:1;fill-rule:nonzero;stroke:none"
         id="path182"
         inkscape:connector-curvature="0" /><path
         d="m 8129.06,14553.7 c 19.52,-124.9 1399.81,-1026.3 2995.04,-1261.7 1595.1,-235.4 2941.3,-67.2 3006.7,375.9 l -6001.74,885.8"
         style="fill:#1d49e0;fill-opacity:1;fill-rule:nonzero;stroke:none"
         id="path184"
         inkscape:connector-curvature="0" /><path
         d="m 11351.1,15557.1 c 0,0 -209.5,-99.3 -310,-251.8 -155.8,-236.6 -336.4,-1098.8 -339.8,-1178.6 -3.3,-79.9 140.3,-544.6 140.3,-544.6 0,0 79.8,-77.8 115.2,-8.6 0,0 21.4,567 38.8,604.3 17.3,37.2 571.5,776.9 509.2,934.7 -62.3,157.8 -153.7,444.6 -153.7,444.6"
         style="fill:#ffb27d;fill-opacity:1;fill-rule:nonzero;stroke:none"
         id="path186"
         inkscape:connector-curvature="0" /><path
         d="m 10841.6,13582.1 c 0,0 17.4,-169.2 36.5,-201.2 19.1,-32 107.8,-125 135,-154.4 1.9,-2 19.5,13.6 6.2,36.1 -53.9,90.9 -38.9,69.1 -20.3,128.8 9.2,29.6 15,-55.5 30.2,-57.5 15.3,-2 9.9,89.7 10.4,117.5 0.6,27.9 -76.5,41 -85.6,141.6 -5.8,64.7 -112.4,-10.9 -112.4,-10.9"
         style="fill:#ffb27d;fill-opacity:1;fill-rule:nonzero;stroke:none"
         id="path188"
         inkscape:connector-curvature="0" /><path
         d="m 10878.1,13380.9 99.2,-165.9 c 0,0 11.8,5 9.9,16.8 -1.8,11.9 -30.5,101.7 -30.5,101.7 l -78.6,47.4"
         style="fill:#ffb27d;fill-opacity:1;fill-rule:nonzero;stroke:none"
         id="path190"
         inkscape:connector-curvature="0" /><path
         d="m 10977.4,13376.1 c 0,0 71.5,-81.6 55.6,-100 l -51.6,39.9 -4,60.1"
         style="fill:#ffb27d;fill-opacity:1;fill-rule:nonzero;stroke:none"
         id="path192"
         inkscape:connector-curvature="0" /><path
         d="m 11723.5,15857.8 c 0,0 -1.3,-29.5 -22.6,-38.6 -21.4,-9.1 -82.9,0 -82.9,0 0,0 49.3,43.9 105.5,38.6"
         style="fill:#ffffff;fill-opacity:1;fill-rule:nonzero;stroke:none"
         id="path194"
         inkscape:connector-curvature="0" /><path
         d="m 7415.66,4989.3 c 0,0 388.55,453.3 23.96,741.2 0,0 -266.32,161.3 -483.47,148.2 0,0 307.7,-516 208.16,-567.3 -99.55,-51.3 -301.42,599.6 -301.42,599.6 0,0 -606.04,58.8 -801,-34.9 0,0 518.09,-424 408.97,-449.2 -109.11,-25.3 -668.72,390.9 -668.72,390.9 0,0 -564.05,-96 -533.98,-440.1 30.08,-344.1 224.43,-450.4 309.86,-441.2 85.42,9.1 585.11,199.9 596,129.9 10.88,-70 -289.91,-298.7 -500.54,-309.4 0,0 397.68,-438.6 661.97,-312 264.3,126.5 286.85,327.2 451.61,402.4 164.75,75.3 305.38,75.1 237.36,-1.7 -68.01,-76.7 -366.18,-151.3 -460.4,-318 -94.22,-166.6 -178.75,-279 94.7,-237.9 273.44,41.2 717.92,241.3 737.43,470.4 19.51,229.1 19.51,229.1 19.51,229.1"
         style="fill:#c8dbf4;fill-opacity:1;fill-rule:nonzero;stroke:none"
         id="path196"
         inkscape:connector-curvature="0" /><path
         d="m 5545.31,5368.4 c 0,0 1532.02,59 1870.35,-379.1 0,0 74.83,-224.1 305.07,-428.2 l 35.89,-97.8 c 0,0 -265.48,279.9 -360.47,296.9 0,0 148.56,542.8 -1850.84,608.2"
         style="fill:#c8dbf4;fill-opacity:1;fill-rule:nonzero;stroke:none"
         id="path198"
         inkscape:connector-curvature="0" /><path
         d="m 7720.73,4561.1 c 0,0 328.84,-243.2 351.68,-677.7 l -59.69,-5.3 c 0,0 -105.02,449.3 -294.85,625 -189.82,175.7 2.86,58 2.86,58"
         style="fill:#c8dbf4;fill-opacity:1;fill-rule:nonzero;stroke:none"
         id="path200"
         inkscape:connector-curvature="0" /><path
         d="m 8774.18,5559.4 c 0,0 -618.09,346.1 -329.64,815.8 0,0 230.75,288.5 477.98,362.7 0,0 -131.86,-700.5 0,-717 131.86,-16.5 90.66,791.1 90.66,791.1 0,0 651.06,313.2 906.54,288.5 0,0 -403.83,-684 -271.97,-667.6 131.86,16.5 585.15,708.8 585.15,708.8 0,0 667.5,123.6 774.7,-272 107.1,-395.6 -66,-593.3 -164.9,-618.1 -98.9,-24.7 -733.4,-16.4 -717,-98.9 16.5,-82.4 445.1,-214.2 684.1,-140.1 0,0 -263.8,-651 -609.9,-618.1 -346.12,33 -453.25,247.3 -667.52,263.8 -214.27,16.5 -370.86,-41.2 -263.72,-98.9 107.13,-57.7 469.75,-18.9 642.81,-166.1 173.03,-147.1 313.13,-237.7 -8.24,-303.7 -321.4,-65.9 -898.29,-24.7 -1013.67,222.5 -115.38,247.3 -115.38,247.3 -115.38,247.3"
         style="fill:#c8dbf4;fill-opacity:1;fill-rule:nonzero;stroke:none"
         id="path202"
         inkscape:connector-curvature="0" /><path
         d="m 10702.6,6746.1 c 0,0 -1730.63,-560.4 -1928.42,-1186.7 0,0 8.25,-280.2 -164.82,-601.6 v -123.7 c 0,0 181.3,420.3 280.2,478 0,0 -387.34,544 1813.04,1434"
         style="fill:#c8dbf4;fill-opacity:1;fill-rule:nonzero;stroke:none"
         id="path204"
         inkscape:connector-curvature="0" /><path
         d="m 8609.36,4957.8 c 0,0 -266.9,-405.3 -114.74,-898.7 l 68.67,18.5 c 0,0 -66.66,543.4 72.98,816.7 139.64,273.3 -26.91,63.5 -26.91,63.5"
         style="fill:#c8dbf4;fill-opacity:1;fill-rule:nonzero;stroke:none"
         id="path206"
         inkscape:connector-curvature="0" /><path
         d="m 7790.85,6036.7 c 0,0 814.76,456.3 434.54,1075.5 0,0 -304.18,380.2 -630.08,478 0,0 173.81,-923.4 0,-945.1 -173.82,-21.7 -119.5,1042.9 -119.5,1042.9 0,0 -858.22,412.8 -1194.98,380.2 0,0 532.3,-901.7 358.49,-879.9 -173.82,21.7 -771.31,934.2 -771.31,934.2 0,0 -879.94,163 -1021.16,-358.5 -141.22,-521.4 86.9,-782.1 217.27,-814.7 130.36,-32.6 966.85,-21.8 945.12,-130.4 -21.73,-108.6 -586.63,-282.4 -901.67,-184.7 0,0 347.63,-858.2 803.9,-814.7 456.26,43.4 597.49,325.9 879.94,347.6 282.45,21.7 488.85,-54.3 347.63,-130.4 -141.22,-76 -619.22,-24.9 -847.35,-218.8 -228.14,-194 -412.81,-313.5 10.86,-400.4 423.68,-86.9 1184.12,-32.6 1336.21,293.3 152.09,325.9 152.09,325.9 152.09,325.9"
         style="fill:#d4e4f8;fill-opacity:1;fill-rule:nonzero;stroke:none"
         id="path208"
         inkscape:connector-curvature="0" /><path
         d="m 5248.79,7601.1 c 0,0 2281.34,-738.7 2542.06,-1564.4 0,0 -10.86,-369.3 217.27,-793 v -163 c 0,0 -239,554.1 -369.36,630.1 0,0 510.59,717 -2389.97,1890.3"
         style="fill:#d4e4f8;fill-opacity:1;fill-rule:nonzero;stroke:none"
         id="path210"
         inkscape:connector-curvature="0" /><path
         d="m 8008.12,5243.7 c 0,0 351.82,-534.3 151.25,-1184.6 l -90.52,24.3 c 0,0 87.86,716.3 -96.2,1076.6 -184.07,360.2 35.47,83.7 35.47,83.7"
         style="fill:#d4e4f8;fill-opacity:1;fill-rule:nonzero;stroke:none"
         id="path212"
         inkscape:connector-curvature="0" /><path
         d="m 7818.3,2648.8 c -881.43,0 -1595.99,714.6 -1595.99,1596 h 3191.98 c 0,-881.4 -714.55,-1596 -1595.99,-1596"
         style="fill:#d4e4f8;fill-opacity:1;fill-rule:nonzero;stroke:none"
         id="path214"
         inkscape:connector-curvature="0" /><path
         d="m 6200.27,2567.6 h 3236.06 c 0,108.8 -88.16,196.9 -196.91,196.9 H 6397.18 c -108.75,0 -196.91,-88.1 -196.91,-196.9"
         style="fill:#d4e4f8;fill-opacity:1;fill-rule:nonzero;stroke:none"
         id="path216"
         inkscape:connector-curvature="0" /><path
         d="m 6186.02,4195.9 h 3280.75 v 48.9 H 6186.02 v -48.9"
         style="fill:#9fc1f4;fill-opacity:1;fill-rule:nonzero;stroke:none"
         id="path218"
         inkscape:connector-curvature="0" /><g
         id="g220"
         transform="scale(1.67695)"><path
           d="m 13844.1,4156.23 v -66.37 c 0,-23.25 7.6,-42.22 16.8,-42.22 h 2422.4 c 9.2,0 16.7,18.97 16.7,42.22 v 66.37 c 0,23.2 -7.5,42.22 -16.7,42.22 h -2422.4 c -9.2,0 -16.8,-19.02 -16.8,-42.22"
           style="fill:#9abfe2;fill-opacity:1;fill-rule:nonzero;stroke:none"
           id="path222"
           inkscape:connector-curvature="0" /></g><g
         id="g224"
         transform="scale(1.6253)"><path
           d="m 14284.1,4288.31 v -68.48 c 0,-23.99 7.1,-43.56 15.8,-43.56 h 1984.3 c 8.7,0 15.8,19.57 15.8,43.56 v 68.48 c 0,23.94 -7.1,43.57 -15.8,43.57 h -1984.3 c -8.7,0 -15.8,-19.63 -15.8,-43.57"
           style="fill:#bad4f4;fill-opacity:1;fill-rule:nonzero;stroke:none"
           id="path226"
           inkscape:connector-curvature="0" /></g><g
         id="g228"
         transform="scale(1.6643)"><path
           d="M 14567.1,1552.67 H 16300 V 4078.41 H 14567.1 V 1552.67"
           style="fill:#c8dbf4;fill-opacity:1;fill-rule:nonzero;stroke:none"
           id="path230"
           inkscape:connector-curvature="0" /></g><g
         id="g232"
         transform="scale(1.61472)"><path
           d="M 14513.9,1600.34 H 16300 v 2603.3 h -1786.1 v -2603.3"
           style="fill:#dfebfd;fill-opacity:1;fill-rule:nonzero;stroke:none"
           id="path234"
           inkscape:connector-curvature="0" /></g><g
         id="g236"
         transform="scale(1.60521)"><path
           d="m 16282.7,4137.22 h -1569 V 1771.73 h 1569 z m -1586.3,17.32 H 16300 V 1754.41 h -1603.6 v 2400.13"
           style="fill:#b7d3f3;fill-opacity:1;fill-rule:nonzero;stroke:none"
           id="path238"
           inkscape:connector-curvature="0" /></g><g
         id="g240"
         transform="scale(1.60436)"><path
           d="M 14712.9,3345.02 H 16300 v 17.33 h -1587.1 v -17.33"
           style="fill:#b7d3f3;fill-opacity:1;fill-rule:nonzero;stroke:none"
           id="path242"
           inkscape:connector-curvature="0" /></g><g
         id="g244"
         transform="scale(1.60436)"><path
           d="M 14712.9,2535.16 H 16300 v 17.33 h -1587.1 v -17.33"
           style="fill:#b7d3f3;fill-opacity:1;fill-rule:nonzero;stroke:none"
           id="path246"
           inkscape:connector-curvature="0" /></g><g
         id="g248"
         transform="scale(1.54179)"><path
           d="m 15966.6,4164.26 h 306.4 c 14.9,0 27,12.2 27,27.05 0,14.92 -12.1,27.05 -27,27.05 h -306.4 c -15,0 -27.1,-12.13 -27.1,-27.05 0,-14.85 12.1,-27.05 27.1,-27.05"
           style="fill:#b7d3f3;fill-opacity:1;fill-rule:nonzero;stroke:none"
           id="path250"
           inkscape:connector-curvature="0" /></g><g
         id="g252"
         transform="scale(1.54179)"><path
           d="m 15966.6,3340.15 h 306.4 c 14.9,0 27,12.2 27,27.05 0,14.85 -12.1,27.05 -27,27.05 h -306.4 c -15,0 -27.1,-12.2 -27.1,-27.05 0,-14.85 12.1,-27.05 27.1,-27.05"
           style="fill:#b7d3f3;fill-opacity:1;fill-rule:nonzero;stroke:none"
           id="path254"
           inkscape:connector-curvature="0" /></g><g
         id="g256"
         transform="scale(1.54179)"><path
           d="m 15966.6,2481.09 h 306.4 c 14.9,0 27,12.12 27,27.04 0,14.86 -12.1,27.05 -27,27.05 h -306.4 c -15,0 -27.1,-12.19 -27.1,-27.05 0,-14.92 12.1,-27.04 27.1,-27.04"
           style="fill:#b7d3f3;fill-opacity:1;fill-rule:nonzero;stroke:none"
           id="path258"
           inkscape:connector-curvature="0" /></g><g
         id="g260"
         transform="scale(1.4976)"><path
           d="m 16199.4,8106.68 h -1204.8 c -55.3,0 -100.6,45.26 -100.6,100.57 v 1162.86 c 0,55.31 45.3,100.56 100.6,100.56 h 1204.8 c 55.3,0 100.6,-45.25 100.6,-100.56 V 8207.25 c 0,-55.31 -45.3,-100.57 -100.6,-100.57"
           style="fill:#c0d8fb;fill-opacity:1;fill-rule:nonzero;stroke:none"
           id="path262"
           inkscape:connector-curvature="0" /></g><g
         id="g264"
         transform="scale(1.492)"><path
           d="m 16207.8,8196.39 h -1104.6 c -50.7,0 -92.1,41.49 -92.1,92.2 v 1066.09 c 0,50.71 41.4,92.2 92.1,92.2 h 1104.6 c 50.7,0 92.2,-41.49 92.2,-92.2 V 8288.59 c 0,-50.71 -41.5,-92.2 -92.2,-92.2"
           style="fill:#dfebfd;fill-opacity:1;fill-rule:nonzero;stroke:none"
           id="path266"
           inkscape:connector-curvature="0" /></g><g
         id="g268"
         transform="scale(1.43568)"><path
           d="m 16239.3,9687.61 c 0,16.78 13.5,30.37 30.3,30.37 16.8,0 30.4,-13.59 30.4,-30.37 0,-16.79 -13.6,-30.39 -30.4,-30.39 -16.8,0 -30.3,13.6 -30.3,30.39"
           style="fill:#b7d3f3;fill-opacity:1;fill-rule:nonzero;stroke:none"
           id="path270"
           inkscape:connector-curvature="0" /></g><g
         id="g272"
         transform="scale(1.45732)"><path
           d="m 16239.6,9501.46 c 8,14.45 26.3,19.65 40.7,11.63 14.5,-8.03 19.7,-26.26 11.7,-40.7 -8.1,-14.45 -26.3,-19.65 -40.7,-11.63 -14.5,8.03 -19.7,26.26 -11.7,40.7"
           style="fill:#b7d3f3;fill-opacity:1;fill-rule:nonzero;stroke:none"
           id="path274"
           inkscape:connector-curvature="0" /></g><g
         id="g276"
         transform="scale(1.47492)"><path
           d="m 16250.2,9225.66 c 13.8,8.86 32.1,4.91 40.9,-8.82 8.9,-13.72 5,-32.02 -8.8,-40.88 -13.7,-8.85 -32,-4.9 -40.9,8.82 -8.8,13.72 -4.9,32.03 8.8,40.88"
           style="fill:#b7d3f3;fill-opacity:1;fill-rule:nonzero;stroke:none"
           id="path278"
           inkscape:connector-curvature="0" /></g><g
         id="g280"
         transform="scale(1.48226)"><path
           d="m 16270.6,8929.86 c 16.2,0 29.4,-13.17 29.4,-29.42 0,-16.25 -13.2,-29.42 -29.4,-29.42 -16.3,0 -29.4,13.17 -29.4,29.42 0,16.25 13.1,29.42 29.4,29.42"
           style="fill:#b7d3f3;fill-opacity:1;fill-rule:nonzero;stroke:none"
           id="path282"
           inkscape:connector-curvature="0" /></g><g
         id="g284"
         transform="scale(1.47595)"><path
           d="m 16288.4,8676.5 c 11.6,-11.54 11.6,-30.25 0,-41.79 -11.5,-11.54 -30.2,-11.54 -41.7,0 -11.6,11.54 -11.6,30.25 0,41.79 11.5,11.54 30.2,11.54 41.7,0"
           style="fill:#b7d3f3;fill-opacity:1;fill-rule:nonzero;stroke:none"
           id="path286"
           inkscape:connector-curvature="0" /></g><g
         id="g288"
         transform="scale(1.45915)"><path
           d="m 16288.3,8588.22 c 11.7,-11.67 11.7,-30.59 0,-42.27 -11.7,-11.67 -30.6,-11.67 -42.2,0 -11.8,11.68 -11.8,30.6 0,42.27 11.6,11.68 30.5,11.68 42.2,0"
           style="fill:#b7d3f3;fill-opacity:1;fill-rule:nonzero;stroke:none"
           id="path290"
           inkscape:connector-curvature="0" /></g><g
         id="g292"
         transform="scale(1.43568)"><path
           d="m 16239.3,8630.01 c 0,16.78 13.5,30.38 30.3,30.38 16.8,0 30.4,-13.6 30.4,-30.38 0,-16.77 -13.6,-30.38 -30.4,-30.38 -16.8,0 -30.3,13.61 -30.3,30.38"
           style="fill:#b7d3f3;fill-opacity:1;fill-rule:nonzero;stroke:none"
           id="path294"
           inkscape:connector-curvature="0" /></g><g
         id="g296"
         transform="scale(1.41472)"><path
           d="m 16291.7,9787.54 c -8.2,14.88 -27,20.24 -41.9,11.97 -14.9,-8.27 -20.2,-27.04 -11.9,-41.92 8.2,-14.89 27,-20.25 41.9,-11.98 14.8,8.27 20.2,27.05 11.9,41.93"
           style="fill:#b7d3f3;fill-opacity:1;fill-rule:nonzero;stroke:none"
           id="path298"
           inkscape:connector-curvature="0" /></g><g
         id="g300"
         transform="scale(1.39711)"><path
           d="m 16281.3,9739.46 c -14.4,9.36 -33.8,5.19 -43.1,-9.3 -9.4,-14.49 -5.2,-33.81 9.3,-43.16 14.4,-9.34 33.7,-5.17 43.1,9.31 9.4,14.49 5.2,33.82 -9.3,43.15"
           style="fill:#b7d3f3;fill-opacity:1;fill-rule:nonzero;stroke:none"
           id="path302"
           inkscape:connector-curvature="0" /></g><g
         id="g304"
         transform="scale(1.38902)"><path
           d="m 16268.5,9529.25 c -17.3,0 -31.4,-14.06 -31.4,-31.4 0,-17.34 14.1,-31.4 31.4,-31.4 17.4,0 31.5,14.06 31.5,31.4 0,17.34 -14.1,31.4 -31.5,31.4"
           style="fill:#b7d3f3;fill-opacity:1;fill-rule:nonzero;stroke:none"
           id="path306"
           inkscape:connector-curvature="0" /></g><g
         id="g308"
         transform="scale(1.39585)"><path
           d="m 16243.6,9174.38 c -12.2,-12.2 -12.2,-31.98 0,-44.19 12.2,-12.2 32,-12.2 44.2,0 12.2,12.21 12.2,31.99 0,44.19 -12.2,12.2 -32,12.2 -44.2,0"
           style="fill:#b7d3f3;fill-opacity:1;fill-rule:nonzero;stroke:none"
           id="path310"
           inkscape:connector-curvature="0" /></g><g
         id="g312"
         transform="scale(1.41266)"><path
           d="m 16244.3,8870.86 c -12.1,-12.05 -12.1,-31.6 0,-43.66 12,-12.06 31.6,-12.06 43.7,0 12,12.06 12,31.61 0,43.66 -12.1,12.06 -31.7,12.06 -43.7,0"
           style="fill:#b7d3f3;fill-opacity:1;fill-rule:nonzero;stroke:none"
           id="path314"
           inkscape:connector-curvature="0" /></g><g
         id="g316"
         transform="scale(1.43764)"><path
           d="m 16239.3,9176.68 c 0,16.76 13.6,30.34 30.4,30.34 16.7,0 30.3,-13.58 30.3,-30.34 0,-16.75 -13.6,-30.34 -30.3,-30.34 -16.8,0 -30.4,13.59 -30.4,30.34"
           style="fill:#b7d3f3;fill-opacity:1;fill-rule:nonzero;stroke:none"
           id="path318"
           inkscape:connector-curvature="0" /></g><g
         id="g320"
         transform="scale(1.43533)"><path
           d="m 16300,9191.47 h -8.3 v 379.61 h 8.3 v -379.61"
           style="fill:#b7d3f3;fill-opacity:1;fill-rule:nonzero;stroke:none"
           id="path322"
           inkscape:connector-curvature="0" /></g><g
         id="g324"
         transform="scale(1.45302)"><path
           d="m 16101.2,9070.37 -15.2,19.34 198.8,156.05 15.2,-19.34 -198.8,-156.05"
           style="fill:#b7d3f3;fill-opacity:1;fill-rule:nonzero;stroke:none"
           id="path326"
           inkscape:connector-curvature="0" /></g><g
         id="g328"
         transform="scale(1.39514)"><path
           d="m 7811.47,5576.21 h 8375.13 c 62.7,0 113.4,50.75 113.4,113.32 0,62.65 -50.7,113.39 -113.4,113.39 H 7811.47 c -62.65,0 -113.39,-50.74 -113.39,-113.39 0,-62.57 50.74,-113.32 113.39,-113.32"
           style="fill:#77a4e5;fill-opacity:1;fill-rule:nonzero;stroke:none"
           id="path330"
           inkscape:connector-curvature="0" /></g><path
         d="m 11218.2,2568.1 -3.4,0.5 c -41.4,5.5 -70.6,45.5 -65.4,89.3 l 629.4,5279.8 352.8,-10.9 -846,-5305.6 c -5.4,-34 -35.1,-57.4 -67.4,-53.1"
         style="fill:#77a4e5;fill-opacity:1;fill-rule:nonzero;stroke:none"
         id="path332"
         inkscape:connector-curvature="0" /><g
         id="g334"
         transform="scale(1.3711)"><path
           d="m 16246,1873.03 2.5,0.36 c 30.1,4.01 51.5,33.19 47.7,65.13 l -459.1,3850.78 -257.3,-7.95 617,-3869.6 c 3.9,-24.8 25.7,-41.86 49.2,-38.72"
           style="fill:#77a4e5;fill-opacity:1;fill-rule:nonzero;stroke:none"
           id="path336"
           inkscape:connector-curvature="0" /></g><g
         id="g338"
         transform="scale(1.80702)"><path
           d="M 16283.4,1384.27 H 1685.99 c -9.12,0 -16.58,7.42 -16.58,16.55 v 5.64 c 0,9.13 7.46,16.6 16.58,16.6 H 16283.4 c 9.1,0 16.6,-7.47 16.6,-16.6 v -5.64 c 0,-9.13 -7.5,-16.55 -16.6,-16.55"
           style="fill:#2e3552;fill-opacity:1;fill-rule:nonzero;stroke:none"
           id="path340"
           inkscape:connector-curvature="0" /></g><g
         id="g342"
         transform="scale(1.06572)"><path
           d="m 15699.7,13562.1 c 0,165.8 134.3,300.2 300.1,300.2 165.8,0 300.2,-134.4 300.2,-300.2 0,-165.8 -134.4,-300.2 -300.2,-300.2 -165.8,0 -300.1,134.4 -300.1,300.2"
           style="fill:#afdff9;fill-opacity:1;fill-rule:nonzero;stroke:none"
           id="path344"
           inkscape:connector-curvature="0" /></g><g
         id="g346"
         transform="scale(1.12779)"><path
           d="m 15975.9,12163.4 c 0,89.5 72.6,162 162.1,162 89.5,0 162,-72.5 162,-162 0,-89.5 -72.5,-162.1 -162,-162.1 -89.5,0 -162.1,72.6 -162.1,162.1"
           style="fill:#afdff9;fill-opacity:1;fill-rule:nonzero;stroke:none"
           id="path348"
           inkscape:connector-curvature="0" /></g><g
         id="g350"
         transform="scale(1.15223)"><path
           d="m 16114.1,11177.6 c 0,51.3 41.7,92.9 92.9,92.9 51.4,0 93,-41.6 93,-92.9 0,-51.4 -41.6,-93 -93,-93 -51.2,0 -92.9,41.6 -92.9,93"
           style="fill:#afdff9;fill-opacity:1;fill-rule:nonzero;stroke:none"
           id="path352"
           inkscape:connector-curvature="0" /></g><path
         style="fill:#818ee1;fill-opacity:1;stroke-width:2.8248589"
         d="m 1675.1411,813.43454 c -112.6412,-16.8505 -205.7556,-30.70733 -206.9209,-30.79295 -4.7523,-0.34922 -1.2581,-7.44513 15.8231,-32.13337 9.8679,-14.26256 23.3603,-35.14803 29.9829,-46.41215 6.6227,-11.26413 13.5809,-20.48023 15.4626,-20.48023 9.7218,0 70.8748,12.5543 110.5066,22.68624 144.6766,36.98686 234.1324,84.53536 243.0646,129.19615 1.0048,5.02401 0.7146,9.00834 -0.6448,8.85407 -1.3595,-0.15426 -94.6328,-14.06726 -207.2741,-30.91776 z"
         id="path4862"
         inkscape:connector-curvature="0"
         transform="matrix(7.5000002,0,0,-7.5000002,0,20000.001)" /><path
         style="fill:#818ee1;fill-opacity:1;stroke-width:2.8248589"
         d="m 1253.3628,751.4338 c -91.3708,-13.6619 -166.8319,-25.5431 -167.6915,-26.40266 -2.9891,-2.98915 17.5796,-13.32735 40.6444,-20.42855 65.7086,-20.23036 148.5382,-30.53281 247.0308,-30.72601 41.4282,-0.0813 75.9941,0.51981 76.8131,1.33572 0.8189,0.8159 -1.6076,12.25658 -5.3923,25.42373 -3.7847,13.16714 -9.2365,35.38094 -12.115,49.36399 -3.473,16.87098 -6.5671,25.56668 -9.1973,25.84866 -2.18,0.2337 -78.7215,-10.75298 -170.0922,-24.41488 z"
         id="path4864"
         inkscape:connector-curvature="0"
         transform="matrix(7.5000002,0,0,-7.5000002,0,20000.001)" /></g></g></svg>