<?xml version="1.0" encoding="UTF-8" standalone="no"?>
<!-- Generator: Adobe Illustrator 16.0.0, SVG Export Plug-In . SVG Version: 6.00 Build 0)  -->

<svg
   xmlns:dc="http://purl.org/dc/elements/1.1/"
   xmlns:cc="http://creativecommons.org/ns#"
   xmlns:rdf="http://www.w3.org/1999/02/22-rdf-syntax-ns#"
   xmlns:svg="http://www.w3.org/2000/svg"
   xmlns="http://www.w3.org/2000/svg"
   xmlns:sodipodi="http://sodipodi.sourceforge.net/DTD/sodipodi-0.dtd"
   xmlns:inkscape="http://www.inkscape.org/namespaces/inkscape"
   version="1.1"
   id="Layer_1"
   x="0px"
   y="0px"
   width="2500px"
   height="1627px"
   viewBox="0 0 2500 1627"
   enable-background="new 0 0 2500 1627"
   xml:space="preserve"
   sodipodi:docname="teacher day.svg"
   inkscape:version="0.92.5 (2060ec1f9f, 2020-04-08)"><metadata
   id="metadata197"><rdf:RDF><cc:Work
       rdf:about=""><dc:format>image/svg+xml</dc:format><dc:type
         rdf:resource="http://purl.org/dc/dcmitype/StillImage" /></cc:Work></rdf:RDF></metadata><defs
   id="defs195" /><sodipodi:namedview
   pagecolor="#ffffff"
   bordercolor="#666666"
   borderopacity="1"
   objecttolerance="10"
   gridtolerance="10"
   guidetolerance="10"
   inkscape:pageopacity="0"
   inkscape:pageshadow="2"
   inkscape:window-width="636"
   inkscape:window-height="1036"
   id="namedview193"
   showgrid="false"
   inkscape:zoom="0.14505224"
   inkscape:cx="1263.7881"
   inkscape:cy="813.5"
   inkscape:window-x="1280"
   inkscape:window-y="20"
   inkscape:window-maximized="0"
   inkscape:current-layer="Layer_1" />

<g
   id="g10">
	
		<rect
   x="1800.5"
   y="335.5"
   fill="none"
   stroke="#FFFDFD"
   stroke-width="3"
   stroke-linecap="round"
   stroke-miterlimit="10"
   width="325"
   height="397"
   id="rect4" />
	
		<rect
   x="2078.5"
   y="275.5"
   fill="none"
   stroke="#FFFDFD"
   stroke-width="3"
   stroke-linecap="round"
   stroke-miterlimit="10"
   width="151"
   height="156"
   id="rect6" />
	
		<rect
   x="1833.5"
   y="364.5"
   fill="none"
   stroke="#FFFDFD"
   stroke-width="3"
   stroke-linecap="round"
   stroke-miterlimit="10"
   width="130"
   height="34"
   id="rect8" />
</g>
<g
   id="g68">
	<g
   id="g16">
		<path
   fill="#FFBF9E"
   d="M1352.254,741.156c0,0-12.217-30.382-14.861-44.136c-2.646-13.753-8.992-56.071-4.761-57.129    s16.397,19.043,16.397,19.043s-9.521-43.905,0.529-47.608s12.695,39.485,12.695,39.485s-3.703-35.783,4.761-37.37    s11.638,34.383,11.638,34.383s-2.117-38.007,3.703-36.724c5.818,1.283,12.695,51.536,12.695,51.536s24.334-8.464,28.035-2.116    c3.703,6.348-24.861,14.812-25.391,24.862s9.521,42.157,9.521,42.157S1369.762,746.678,1352.254,741.156z"
   id="path12" />
		<path
   fill="none"
   stroke="#FFFDFD"
   stroke-width="3"
   stroke-linecap="round"
   stroke-miterlimit="10"
   d="M1367.015,681.284    c0,0,15.608-15.25,28.036-18.646"
   id="path14" />
	</g>
	<g
   id="g22">
		<path
   fill="#FFBF9E"
   d="M2043.327,630.353c0,0,0.847-32.736-1.476-46.547c-2.32-13.812-11.141-55.684-15.475-55.199    c-4.336,0.485-8.721,23.569-8.721,23.569s-6.399-44.468-17.11-44.431c-10.712,0.038,1.882,41.434,1.882,41.434    s-9.017-34.825-17.502-33.359c-8.486,1.466,1.093,36.283,1.093,36.283s-11.28-36.356-16.286-33.123    c-5.005,3.233,6.088,52.727,6.088,52.727s-25.759,0.56-27.012,7.801c-1.255,7.241,28.467,5.204,32.471,14.438    s5.789,42.829,5.789,42.829S2028.848,641.637,2043.327,630.353z"
   id="path18" />
		<path
   fill="none"
   stroke="#FFFDFD"
   stroke-width="3"
   stroke-linecap="round"
   stroke-miterlimit="10"
   d="M2008.601,579.396    c0,0-19.949-8.845-32.78-7.69"
   id="path20" />
	</g>
	<path
   fill="#00259A"
   d="M1579.322,962.141c0,0,170.317-30.721,250.9-25.641c0,0,79.083-55.606,104.582-97.26   s34.497-91.24,32.998-123.444s0.158-96.7,0.158-96.7s82.339,1.214,94.338,22.356c0,0,7.5,172.038-20.999,216.584   s-139.493,132.261-143.993,164.899s19.499,200.188,19.499,200.188l-380.98-14.054l14.999-141.072c0,0-28.499-37.924-88.496-81.421   s-92.996-111.202-106.495-159.096s-25.498-92.012-25.498-92.012l89.202-19.673c0,0,20.873,99.1,34.832,123.444   S1555.484,966.202,1579.322,962.141z"
   id="path24" />
	<path
   fill="#00259A"
   d="M1702,676l-108-59c0,0,3-7,10-7s268-17,268-17s75,95,76,101s-90-7-90-7l-9,28.796L1702,676z"
   id="path26" />
	
		<line
   fill="none"
   stroke="#FFFDFD"
   stroke-width="3"
   stroke-linecap="round"
   stroke-miterlimit="10"
   x1="1704.5"
   y1="634"
   x2="1704.5"
   y2="681"
   id="line28" />
	
		<line
   fill="none"
   stroke="#FFFDFD"
   stroke-width="3"
   stroke-linecap="round"
   stroke-miterlimit="10"
   x1="1864"
   y1="657.5"
   x2="1851.736"
   y2="707.043"
   id="line30" />
	<path
   fill="#CF2827"
   d="M1679,875c0,0-62,38-60-30c0,0-43-16.91-29-48.955S1604,764,1604,764s-16-22,5-36s34-12,34-12s-21-17-2-30   s48,0,48,0s-1-20,16-24s40,12,40,12s24-20.284,39-12.642S1794,684,1794,684s42-8,54,15s8,36.47,8,36.47s21,2.53,24,24.53   s-4,27.871-4,27.871s3,29.092-6,39.61S1842,841,1842,841s18,13,9,33s-22,11.585-22,11.585S1829,910,1813,911s-63-19-63-19L1679,875   z"
   id="path32" />
	<path
   fill="#FFBF9E"
   d="M1671,768c0,0-1,39-11,64s-7,43,11,52s18,19,13,30s-13.402,30-13.402,30S1698,986,1729,977s34-30,34-30   s1-37,11-46s31-14.736,33-27.868S1790,852,1790,852l23-55.955C1813,796.045,1788,681,1671,768z"
   id="path34" />
	<path
   fill="#CF2827"
   d="M1664,754c0,0-2,20.494,22,25.247s25-8.247,25-8.247s8.34,13.742,22.67,16.871s23.33-16.936,23.33-16.936   s2,15.469,20,17.267s26-8.955,26-8.955l27,8.624c0,0,2-22.871-6-33.871s-24-28-44-31s-39-10-57-6s-34,5.939-39,18.47   S1664,754,1664,754z"
   id="path36" />
	<path
   fill="none"
   stroke="#00259A"
   stroke-width="3"
   stroke-linecap="round"
   stroke-miterlimit="10"
   d="M1698,827.481   c0,0-9,22.519,0,23.519"
   id="path38" />
	<path
   fill="none"
   stroke="#00259A"
   stroke-width="3"
   stroke-linecap="round"
   stroke-miterlimit="10"
   d="M1676,851   c0,0,17.34,46.734,57.67,5.867"
   id="path40" />
	<path
   fill="none"
   stroke="#00259A"
   stroke-width="3"
   stroke-linecap="round"
   stroke-miterlimit="10"
   d="M1676,813.096   c0,0,7-8.096,12,0.404"
   id="path42" />
	<path
   fill="none"
   stroke="#00259A"
   stroke-width="3"
   stroke-linecap="round"
   stroke-miterlimit="10"
   d="M1738,813.5   c0,0,10-11.5,14,0"
   id="path44" />
	<path
   fill="#CF2827"
   d="M1671.999,941c0,0,37.388,21.467,39.694,36.275c2.307,14.807-7.193,16.849-7.193,16.849S1649,959,1649,941   C1649,924,1671.999,941,1671.999,941z"
   id="path46" />
	<path
   fill="#CF2827"
   d="M1746.056,941c0,0-37.388,21.467-39.694,36.275c-2.307,14.807,7.193,16.849,7.193,16.849   s55.5-35.124,55.5-53.124C1769.055,924,1746.056,941,1746.056,941z"
   id="path48" />
	<path
   fill="none"
   stroke="#FFFDFD"
   stroke-width="3"
   stroke-linecap="round"
   stroke-miterlimit="10"
   d="M1704.5,994.124   c0,0,6.816,169.81,20.315,195.876"
   id="path50" />
	<path
   fill="#B7B7B7"
   d="M1569.478,959.92c0,0,78.708,126.82,118.522,149.485l24.055-32.832c0,0-66.982-86.217-78.108-123.354   C1633.946,953.219,1574.632,945.262,1569.478,959.92z"
   id="path52" />
	<path
   fill="#B7B7B7"
   d="M1851.736,920.488c0,0-51.846,154.588-86.273,184.814l-30.18-27.309c0,0,48.225-97.951,51.635-136.568   C1786.918,941.426,1843.732,907.171,1851.736,920.488z"
   id="path54" />
	<circle
   fill="#FA84D0"
   cx="1724.906"
   cy="1114.904"
   r="46.906"
   id="circle56" />
	<path
   fill="none"
   stroke="#FFFDFD"
   stroke-width="3"
   stroke-linecap="round"
   stroke-miterlimit="10"
   d="M1967.573,637.815   c0,0,70.23,2.591,95.227,19.685"
   id="path58" />
	
		<line
   fill="none"
   stroke="#FFFDFD"
   stroke-width="3"
   stroke-linecap="round"
   stroke-miterlimit="10"
   x1="1334.884"
   y1="752.101"
   x2="1423.417"
   y2="733.437"
   id="line60" />
	<path
   fill="none"
   stroke="#FFFDFD"
   stroke-width="3"
   stroke-linecap="round"
   stroke-miterlimit="10"
   d="M1587.197,951.062   c0,0,74.488,118.809,100.803,134.909"
   id="path62" />
	<path
   fill="none"
   stroke="#FFFDFD"
   stroke-width="3"
   stroke-linecap="round"
   stroke-miterlimit="10"
   d="M1818.01,925.209   c0,0-35.824,122.974-66.01,151.418"
   id="path64" />
	
		<circle
   fill="none"
   stroke="#FFFDFD"
   stroke-width="3"
   stroke-linecap="round"
   stroke-miterlimit="10"
   cx="1724.54"
   cy="1118.548"
   r="26.485"
   id="circle66" />
</g>
<g
   id="g76">
	<path
   fill="none"
   stroke="#00259A"
   stroke-width="3"
   stroke-linecap="round"
   stroke-miterlimit="10"
   d="M337,1209.07   c0,0-56-61.07-42-119.07s-36-83.719-13-127.859s-17.289-81.152-6.145-129.646s-25.129-95.273-1.992-104.884   S315,836.299,337,852.149s66,88.663,66,125.257s52.246,90.334,46.123,140.464S437,1192,437,1192L337,1209.07z"
   id="path70" />
	<path
   fill="none"
   stroke="#00259A"
   stroke-width="3"
   stroke-linecap="round"
   stroke-miterlimit="10"
   d="M379,1189.523   c0,0,10-61.523-10-109.523s-26-63.188-22-102.594s-34-79.836-38-114.621s-12-66.74-12-66.74"
   id="path72" />
	<path
   fill="none"
   stroke="#00259A"
   stroke-width="3"
   stroke-linecap="round"
   stroke-miterlimit="10"
   d="M390.979,932.653   c0,0,2.021-48.581,20.021-74.617s-8-71.894,9-97.965s-7-104.167,11-108.119s42,106.321,54,123.185s58.545,54.896,44.272,101.88   S519,1006.219,523,1018.109S521,1092,519,1100s-15.377,34.116-15.377,34.116L477,1117.87c0,0-36.756-145.452-27.378-192.661   s-3.378-104.209,0-111.709s-0.499-53.429-0.499-53.429"
   id="path74" />
</g>
<g
   id="g112">
	<path
   fill="#00259A"
   d="M853,474c0,0,71,73,27,134s-11.236,126,14.382,157S941,798,947,834s-34,129.18-165,128.59   s-238.434-91.432-217.217-129.511S619,768,607,732s-71-127-9-172s103-75,117-86S811,435,853,474z"
   id="path78" />
	<path
   fill="#FFC27A"
   d="M989,841.085c0,0,75.844,37.999,96.843,90.496s78.995,93.994,90.995,105.993s12,11.999,12,11.999   s25.998-20.497,54.497-45.996s82.495-77.996,95.995-100.495s29.999-41.998,29.999-41.998s-1.5-32.997,6-44.997   s10.5-29.999,10.5-29.999s6.172,21.246,3.506,30.579s-2.666,18.666-2.666,18.666s15.332-11.334,18.666-18s8-17.824,8-31.245   s7.334-6.089,5.334,13.245S1414.002,824,1414.002,824s11.333-13.333,12-28s5.334-4,4.667,8s-7.334,24.785-7.334,24.785   s10.667-10.786,12.667-27.452s6.001,6.667,4.667,12.667s-12,24.667-12,24.667s14-13.334,16-23.334s1.333,13.334-4.667,23.334   s-24,34.001-29.333,40.667S1374,938,1352,968s-83,134-104,153s-52.5,34.568-88.5,15c-33.029-17.953-119.866-92.471-165.263-118.425   S921,972,921,972S967.849,838.672,989,841.085z"
   id="path80" />
	<path
   fill="#FFFDFD"
   d="M989,827.481c0,0,39.695,11.298,59.195,29.7c19.498,18.402,36.072,31.901,42.072,34.901   s4.972,17.456-13.994,17.728s21.551,37.77-0.947,39.27c-22.5,1.5,10.356,38.998-18.142,38.998S989,1022.936,989,1022.936V827.481z"
   id="path82" />
	<path
   fill="#A4E1DC"
   d="M549,1200.023c0,0-24-86.023-34-142.023s-26-191.855,17-214.928S795,811,849,813.5s108,0.5,134,8.5   s34,178,18,234s-90,92.047-98,144.023S549,1200.023,549,1200.023z"
   id="path84" />
	<path
   fill="#FFC27A"
   d="M767,537c-41,18-83,71-56,117s23.727,37,23.727,37S690,698,711,724s28,18,28,18s3.652,50.812,2.826,73.406   c0,0,54.174,65.594,71.174,63.594s20-65.904,20-65.904S813,764,833,756s40-5,58-22s9-58,0-84s-27-50-46-95S767,537,767,537z"
   id="path86" />
	<path
   fill="#FFFDFD"
   d="M825,813.096L813,879c0,0,21,24,37,17s-6-21,0-28s17,6.375,11-12.812S849,813.5,849,813.5   S835,799.191,825,813.096z"
   id="path88" />
	<path
   fill="#FFFDFD"
   d="M741.947,807.02L813,879c0,0-16.053,33-35.526,30S768,885.09,762,879.045S745,876,746,868   s-18.863-40.477-20.932-51.738S741.947,807.02,741.947,807.02z"
   id="path90" />
	<path
   fill="#00259A"
   d="M843,528.967c0,0,33,72.033-30,103.033s-76.547,46-78.273,59S706,708,719,741s-41.191,38.247-41.191,38.247   S647,714,644,695s-1-126,0-131S778,503.934,843,528.967z"
   id="path92" />
	<path
   fill="none"
   stroke="#00259A"
   stroke-width="3"
   stroke-linecap="round"
   stroke-miterlimit="10"
   d="M808,655   c0,0,5-10.279,14-4.14"
   id="path94" />
	<path
   fill="none"
   stroke="#00259A"
   stroke-width="3"
   stroke-linecap="round"
   stroke-miterlimit="10"
   d="M856,634   c0,0,5-10.279,14-4.14"
   id="path96" />
	<path
   fill="none"
   stroke="#00259A"
   stroke-width="3"
   stroke-linecap="round"
   stroke-miterlimit="10"
   d="M856,648.905   c0,0,23,23.095,14,28.095s-9,5-9,5"
   id="path98" />
	
		<circle
   fill="none"
   stroke="#FFFDFD"
   stroke-width="3"
   stroke-linecap="round"
   stroke-miterlimit="10"
   cx="837.819"
   cy="671.271"
   r="10.819"
   id="circle100" />
	
		<circle
   fill="none"
   stroke="#FFFDFD"
   stroke-width="3"
   stroke-linecap="round"
   stroke-miterlimit="10"
   cx="882.819"
   cy="652.271"
   r="10.819"
   id="circle102" />
	<path
   fill="none"
   stroke="#FFFDFD"
   stroke-width="3"
   stroke-linecap="round"
   stroke-miterlimit="10"
   d="M844.887,663.091   c0,0,16.294-10.819,27.113-10.819"
   id="path104" />
	<path
   fill="none"
   stroke="#00259A"
   stroke-width="3"
   stroke-linecap="round"
   stroke-miterlimit="10"
   d="M851.639,708.273   c0,0,10.537,8.738,20.449-4.268"
   id="path106" />
	<path
   fill="none"
   stroke="#FFFDFD"
   stroke-width="3"
   stroke-linecap="round"
   stroke-miterlimit="10"
   d="M813,879   c0,0,31.773,77,31.887,115"
   id="path108" />
	<path
   fill="none"
   stroke="#FFFDFD"
   stroke-width="3"
   stroke-linecap="round"
   stroke-miterlimit="10"
   d="M837.819,499.704   c0,0,23.218,39.636,14.556,71.897"
   id="path110" />
</g>

<line
   fill="none"
   stroke="#D3D3D3"
   stroke-width="5"
   stroke-linecap="round"
   stroke-miterlimit="10"
   x1="131"
   y1="1190.5"
   x2="2266"
   y2="1190.5"
   id="line116" />
<path
   fill="#FFC27A"
   d="M515.268,858.785c0,0-62.39,148.361-78.889,237.788s-39.605,170.991,39.444,172.491s193.044-9,238.042-10.5  s97.494-16.499,110.994-14.999s46.498,1.5,46.498,1.5s23.998-2.999,32.998-10.499s22.5-1.499,29.999,1.5s-19.5-35.998-50.998-40.498  s-56.997,11.999-73.496,10.499s-154.492-7.499-175.491-10.499s-77.995-13.5-110.994-9c0,0,12-55.498,19.499-85.496  S585.156,914.982,515.268,858.785z"
   id="path118" />
<path
   fill="#FFFDFD"
   d="M518.191,853.182c0,0-24.816,43.901-33.816,55.9s-40.497,28.498-34.498,44.997s33.78,21.062,33.78,21.062  s-42.802-0.059-18.792,17.938s44.152,21.03,44.152,21.03s-28.145,11.966-5.395,22.466s46.993,27.423,46.993,27.423  S598.506,927.775,518.191,853.182z"
   id="path120" />
<g
   id="g138">
	<polygon
   fill="#00259A"
   points="667.389,1425.446 666.123,1438.384 925.718,1436.692 1130.039,1431.049 1131.553,1415.567    927.246,1420.264  "
   id="polygon122" />
	<path
   fill="#B7B7B7"
   d="M672.744,1370.678l1.515,54.616l238.016,2.995l5.157-52.748   C917.432,1375.541,737.781,1313.15,672.744,1370.678z"
   id="path124" />
	<polygon
   fill="#B7B7B7"
   points="1106.309,1353.597 1135.294,1377.309 1131.553,1415.567 912.274,1428.289 918.113,1368.574  "
   id="polygon126" />
	<path
   fill="#FFFDFD"
   d="M955.99,1254.282l-40.358,139.671c0,0-85.775-41.988-149.237-36.137   c-63.461,5.853-93.654,12.891-93.654,12.891l74.015-126.753C746.755,1243.954,886.475,1191.724,955.99,1254.282z"
   id="path128" />
	<path
   fill="#FFFDFD"
   d="M1158.378,1268.042l-23.084,109.267c0,0-189.426-10.501-219.662,16.645l40.358-139.671   C955.99,1254.282,1062.088,1189.303,1158.378,1268.042z"
   id="path130" />
	<path
   fill="#32A959"
   d="M739.148,1335.502c0,0,29.85-3.864,48.234-0.058l8.494-32.075l-41.56,0.291L739.148,1335.502z"
   id="path132" />
	<polygon
   fill="#CF2827"
   points="791.61,1283.862 781.164,1309.97 814.01,1313.181 824.93,1287.12  "
   id="polygon134" />
	<path
   fill="#D9CE99"
   d="M980.848,1279.3l-20.131,81.301c0,0,40.348-8.03,67.154-4.739l14.305-77.741   C1042.176,1278.12,1001.57,1270.316,980.848,1279.3z"
   id="path136" />
</g>
<g
   id="g146">
	<path
   fill="#B7B7B7"
   d="M1330.092,1402.896l-96.707-163.561c2.435-9.883,15.725-9.298,15.725-9.298s4.161,5.992,9.738,16.061   c0.565,1.017,1.16,2.07,1.754,3.171c0.795,1.479,1.617,3.022,2.452,4.642c7.569,14.704,82.693,139.729,82.693,139.729l1.104,12.758   l0.649,7.539l-6.565-4.144L1330.092,1402.896z"
   id="path140" />
	<path
   fill="#00259A"
   d="M1330.219,1402.82c5.949-8.02,15.532-9.184,15.532-9.184l1.101,12.759c-2.123,1.015-4.109,2.199-5.854,3.36   L1330.219,1402.82z"
   id="path142" />
	<path
   fill="#00259A"
   d="M1244.75,1258.557l-2.341-3.96c4.128-2.814,10.381-6.571,16.405-8.48c0.566,1.018,1.113,2.1,1.709,3.2   C1255.87,1250.863,1249.285,1253.631,1244.75,1258.557z"
   id="path144" />
</g>
<g
   id="g154">
	<path
   fill="#32A959"
   d="M1447.61,1269.2c0,0-13.511,4.5-26.28-12.021c0,0-6.75,11.641-28.53,12.58   c-21.77,0.94-25.53-20.84-37.54-47.109c-6.88-15.051-13.02-30.841-10.8-44.271c1.65-10.01,7.95-18.72,22.06-24.81   c1.94-0.84,3.82-1.561,5.641-2.17c28.41-9.631,41.76,6.6,42.399,7.399c0.011,0.01,0.021,0.021,0.021,0.03l0.1-0.061   c0.391-0.26,1.931-1.239,4.431-2.489l0.02-0.011c8.72-4.369,29.09-12.069,53.26-4.199   C1504.67,1162.58,1488.91,1262.44,1447.61,1269.2z"
   id="path148" />
	<path
   fill="#FFFDFD"
   d="M1416.812,1112.557c0,0-9.746,30.502-2.237,46.27l4.694-2.634c0,0-0.94-31.343,8.07-43.636   C1427.34,1112.557,1418.732,1105.467,1416.812,1112.557z"
   id="path150" />
	<path
   fill="#32A959"
   d="M1454.369,1121.285c0,0-23.865-13.381-34.833,12.83C1419.536,1134.115,1434.097,1149.816,1454.369,1121.285   z"
   id="path152" />
</g>
<line
   fill="none"
   stroke="#00259A"
   stroke-width="3"
   stroke-linecap="round"
   stroke-miterlimit="10"
   x1="915.632"
   y1="1393.953"
   x2="955.99"
   y2="1254.282"
   id="line156" />
<g
   id="g170">
	<path
   fill="none"
   stroke="#00259A"
   stroke-width="3"
   stroke-linecap="round"
   stroke-miterlimit="10"
   d="M1619,1283.862   c0,0-4.082,102.024,44.959,107.081S1669,1303.725,1619,1283.862z"
   id="path158" />
	<path
   fill="none"
   stroke="#00259A"
   stroke-width="3"
   stroke-linecap="round"
   stroke-miterlimit="10"
   d="M1680.527,1386.769   c57.527-21.231,328.073-26.168,328.073-26.168c1.601-23.399-12.477-76.738-12.477-76.738s-297.124,3.862-377.124,0"
   id="path160" />
	<path
   fill="none"
   stroke="#00259A"
   stroke-width="3"
   stroke-linecap="round"
   stroke-miterlimit="10"
   d="M1851.736,1368.578   c-1.264-29.422-21.514-83.227-21.514-83.227s72.914-29.869,60.777-46.748s-60.777,36.373-60.777,36.373"
   id="path162" />
	<path
   fill="none"
   stroke="#00259A"
   stroke-width="3"
   stroke-linecap="round"
   stroke-miterlimit="10"
   d="M1761,1285.575   c0,0-79.29-9.476-56.5-39.459S1761,1285.575,1761,1285.575z"
   id="path164" />
	<path
   fill="none"
   stroke="#00259A"
   stroke-width="3"
   stroke-linecap="round"
   stroke-miterlimit="10"
   d="M1724.54,1235.298   l47.271,17.038l21.698,31.526c0,0,25.51,71.294,24.5,84.716"
   id="path166" />
	<polyline
   fill="none"
   stroke="#00259A"
   stroke-width="3"
   stroke-linecap="round"
   stroke-miterlimit="10"
   points="1891,1239.5    1812.5,1239.5 1812.5,1284  "
   id="polyline168" />
</g>
<g
   id="g176">
	
		<rect
   x="296.5"
   y="342.5"
   fill="none"
   stroke="#FFFDFD"
   stroke-width="3"
   stroke-linecap="round"
   stroke-miterlimit="10"
   width="268"
   height="38"
   id="rect172" />
	
		<rect
   x="296.5"
   y="419.5"
   fill="none"
   stroke="#FFFDFD"
   stroke-width="3"
   stroke-linecap="round"
   stroke-miterlimit="10"
   width="268"
   height="74"
   id="rect174" />
</g>


<g
   id="g190">
	<circle
   fill="none"
   stroke="#FFFDFD"
   stroke-width="3"
   stroke-linecap="round"
   stroke-miterlimit="10"
   cx="1127"
   cy="536"
   r="86"
   id="circle186" />
	<polyline
   fill="none"
   stroke="#FFFDFD"
   stroke-width="3"
   stroke-linecap="round"
   stroke-miterlimit="10"
   points="1126.5,478    1126.5,536 1157,507.744  "
   id="polyline188" />
</g>
</svg>